PathFileType	3	(X/Y/Z)	D:\Vicon Database\Healthy Subjects\S0040\Jan. 30, 2020\Force Plate Walk 8.trc
DataRate	CameraRate	NumFrames	NumMarkers	Units	OrigDataRate	OrigDataStartFrame	OrigNumFrames
100.0	100.0	4	53	mm	100.0	467	319	
Frame#	Time	right_foot_cluster2			right_foot_cluster3			sternum_cluster1			sternum_cluster2			sternum_cluster3			left_asis			right_asis			left_psis			right_psis			sacrum_cluster1			sacrum_cluster2			sacrum_cluster3			left_lat_femoral_epicondyle			left_anterior_thigh15			left_anterior_thigh25			left_anterior_thigh50			left_lateral_thigh25			left_lateral_thigh50			left_thigh_cluster1			left_thigh_cluster2			left_thigh_cluster3			left_fibular_head			left_tibial_tuberosity			left_anterior_shank30			left_lateral_malleolus			left_shank_cluster1			left_shank_cluster2			left_shank_cluster3			left_heel			left_metatarsal2			left_foot_cluster1			left_foot_cluster2			left_foot_cluster3			right_lat_femoral_epicondyle			right_anterior_thigh15			right_anterior_thigh25			right_anterior_thigh50			right_lateral_thigh25			right_lateral_thigh50			right_thigh_cluster1			right_thigh_cluster2			right_thigh_cluster3			right_fibular_head			right_tibial_tuberosity			right_lateral_distal_shank			right_anterior_shank30			right_lateral_malleolus			right_shank_cluster1			right_shank_cluster2			right_shank_cluster3			right_heel			right_metatarsal2			right_foot_cluster1			
		X1	Y1	Z1	X2	Y2	Z2	X3	Y3	Z3	X4	Y4	Z4	X5	Y5	Z5	X6	Y6	Z6	X7	Y7	Z7	X8	Y8	Z8	X9	Y9	Z9	X10	Y10	Z10	X11	Y11	Z11	X12	Y12	Z12	X13	Y13	Z13	X14	Y14	Z14	X15	Y15	Z15	X16	Y16	Z16	X17	Y17	Z17	X18	Y18	Z18	X19	Y19	Z19	X20	Y20	Z20	X21	Y21	Z21	X22	Y22	Z22	X23	Y23	Z23	X24	Y24	Z24	X25	Y25	Z25	X26	Y26	Z26	X27	Y27	Z27	X28	Y28	Z28	X29	Y29	Z29	X30	Y30	Z30	X31	Y31	Z31	X32	Y32	Z32	X33	Y33	Z33	X34	Y34	Z34	X35	Y35	Z35	X36	Y36	Z36	X37	Y37	Z37	X38	Y38	Z38	X39	Y39	Z39	X40	Y40	Z40	X41	Y41	Z41	X42	Y42	Z42	X43	Y43	Z43	X44	Y44	Z44	X45	Y45	Z45	X46	Y46	Z46	X47	Y47	Z47	X48	Y48	Z48	X49	Y49	Z49	X50	Y50	Z50	X51	Y51	Z51	X52	Y52	Z52	X53	Y53	Z53	
467	4.66	740.87164	101.8122	-238.72896	739.27063	105.29536	-275.96112	893.85034	1431.1294	-184.60542	880.28882	1404.0837	-176.24368	881.42224	1407.1865	-214.14482	895.96063	1044.6372	-60.947834	884.39081	1069.9414	-310.05759	1060.8916	1054.8104	-116.02094	1058.9259	1065.2555	-234.32634	1071.3409	1116.3157	-177.99675	1075.1152	1092.1067	-192.28862	1078.7856	1083.4425	-152.99112	954.16553	516.52142	-39.104267	845.1452	581.7569	-74.497574	833.4389	672.0661	-60.884647	847.1449	813.96338	-51.89357	956.4483	660.09479	-24.100565	953.79767	806.4671	-1.690251	959.45349	762.40509	3.2004116	961.36786	733.03864	0.93905872	925.95392	742.87866	9.6406059	987.83459	458.24359	-26.822926	947.42743	407.86673	-74.703415	1163.9767	271.45724	-89.089508	1282.8837	241.30315	-64.228363	989.10431	365.60757	-99.887863	1009.7016	347.22412	-90.480003	1014.2223	352.09494	-128.30214	1336.2257	301.43726	-101.38175	1268.7823	94.277641	-108.80207	1238.4459	162.6246	-95.436256	1249.9277	134.03528	-88.379616	1240.1665	134.68941	-125.53384	822.78003	531.58838	-329.02643	764.203	636.63916	-271.02902	768.37817	717.20868	-269.42932	799.49255	841.71143	-276.96417	856.89069	687.95813	-356.00043	892.36975	832.27325	-381.8822	885.50177	778.79657	-389.67157	868.35675	756.23651	-384.55804	905.50629	744.99176	-382.98389	825.58844	462.95895	-331.49619	774.18451	459.32291	-282.61716	842.60858	194.40472	-310.38943	799.23749	208.99159	-261.82172	849.2774	94.333397	-293.90903	788.96082	392.23059	-226.63672	795.72589	364.40723	-219.63147	770.55701	361.28229	-246.58679	925.94971	60.854443	-260.88037	707.66254	69.759132	-248.19835	764.63202	115.22997	-248.39662
468	4.67	740.82129	101.42467	-238.61261	739.02057	105.0852	-275.74185	878.88977	1433.3312	-184.13791	865.37976	1406.2717	-175.65999	866.25708	1409.3308	-213.56902	882.33215	1047.1667	-60.714149	869.35736	1072.1367	-309.75403	1046.9221	1057.1403	-116.73245	1044.2839	1067.7646	-234.91678	1056.9492	1118.8175	-178.67268	1060.5256	1094.3225	-193.18846	1064.5219	1085.7939	-153.82593	926.46912	518.69824	-40.1478	820.62274	586.64191	-76.515533	811.95557	677.02124	-63.401253	829.57153	818.16797	-52.966766	933.46851	661.65613	-25.152884	936.23456	808.21735	-2.3325758	939.51465	763.79572	3.2291529	941.1297	734.35474	0.39222816	905.65259	744.91754	9.1292953	958.39722	460.40634	-28.098377	917.82654	410.75253	-76.882248	1134.009	273.73932	-90.911629	1253.4146	242.42624	-65.129028	959.65314	368.78146	-102.40228	979.87103	350.35657	-92.862328	985.01636	355.59204	-130.70908	1308.6769	301.12851	-102.31071	1234.8606	96.213318	-109.63269	1206.9812	165.44215	-96.250084	1216.9014	136.65121	-88.694084	1207.8053	137.55115	-126.45948	816.81085	531.51147	-328.7229	756.20178	635.46344	-269.51489	759.22803	716.07117	-268.60382	787.34546	841.4024	-277.11188	847.55927	688.6554	-355.75946	880.51727	833.27814	-381.66559	874.784	779.81366	-389.38806	858.49896	756.89453	-384.05673	895.29401	746.37463	-382.6337	821.00653	462.72589	-331.16794	769.51434	458.41983	-282.21762	841.82214	194.21043	-309.88403	797.75055	208.39998	-261.66299	849.42737	94.426888	-293.50366	785.31671	391.46106	-226.25742	792.44849	363.74692	-219.16415	767.29681	360.34335	-246.19295	925.79431	61.130814	-260.85281	707.42957	69.377274	-248.06267	764.36487	115.0229	-248.16475
469	4.68	740.44452	101.2629	-238.31018	738.75262	104.90361	-275.50595	863.97961	1435.7981	-183.58289	850.5871	1408.7419	-174.97588	851.13525	1411.7306	-212.90152	868.75195	1049.944	-60.71743	854.5694	1074.132	-309.59906	1033.1523	1059.6172	-117.4281	1029.6494	1070.3268	-235.58057	1042.6417	1121.6573	-179.05829	1047.0148	1096.9374	-193.12764	1050.4912	1088.5818	-154.58678	899.35529	521.4209	-41.268024	796.37268	592.10455	-78.344383	790.39117	682.51733	-65.634705	811.92371	822.80682	-54.177895	910.60791	663.98737	-26.017405	917.98669	810.73975	-2.9746416	919.73608	765.81073	2.6159565	920.71979	736.23181	-0.27918801	885.23499	747.94586	8.2001209	928.5531	462.64877	-29.178963	888.28925	414.05759	-79.166222	1103.3149	275.11343	-92.865021	1223.3588	242.26659	-66.058113	930.42169	372.24323	-105.18674	950.01428	353.53003	-95.445671	955.72174	359.42902	-133.39101	1280.5297	299.03754	-103.9381	1199.4615	96.862411	-109.95085	1174.3295	167.01175	-96.275803	1183.5725	137.85719	-89.035645	1174.0857	138.95058	-126.64673	811.21667	531.77997	-327.98895	748.69214	634.39563	-267.57086	750.18182	715.16125	-267.53568	775.50836	841.19312	-277.08868	839.23651	689.34625	-354.31674	868.66138	834.44592	-381.41202	865.14099	780.96252	-388.65613	849.09113	757.76147	-383.34158	885.48181	747.98004	-382.02118	816.69659	462.90613	-330.44858	765.44025	457.603	-281.21826	840.13879	194.49754	-309.97778	796.31384	208.04683	-261.151	849.04871	94.683449	-293.23178	782.54803	390.81546	-225.49324	789.66895	363.37457	-218.45074	764.5415	359.70071	-245.43062	925.53027	61.33305	-260.68158	707.20239	68.993996	-247.92287	764.02795	114.82925	-247.87292
470	4.69	740.12567	100.94867	-237.99414	738.43829	104.6926	-275.15961	847.97101	1438.7261	-182.54636	835.91382	1411.3651	-174.20969	836.19452	1414.3683	-212.12485	855.21045	1052.9735	-60.831535	840.09515	1076.1571	-309.57114	1019.1483	1062.7971	-117.99424	1015.2332	1073.2413	-236.2177	1028.5237	1124.5948	-180.04829	1033.0343	1100.145	-193.86653	1036.4257	1091.4723	-155.3638	872.6178	525.10413	-42.307995	772.56305	597.90265	-80.122452	768.97974	688.36816	-67.520531	794.58954	827.67987	-55.542637	888.08313	666.82886	-26.826839	900.02338	813.47101	-3.5274675	900.00452	768.47247	2.007231	899.73627	738.81317	-0.92664844	864.97137	751.38147	7.5427208	898.87219	464.7579	-30.118469	859.3338	417.90424	-81.184425	1072.286	275.66608	-94.824074	1192.8702	240.66545	-67.4459	901.42249	376.33707	-108.16454	920.84509	356.68878	-98.793953	924.96283	362.8688	-136.74776	1251.9427	295.05942	-106.04036	1162.2897	96.530075	-110.14335	1140.7617	167.68674	-96.432648	1148.8978	138.19934	-89.266022	1138.7401	139.603	-126.65707	806.06531	532.01807	-327.12112	741.8382	633.32428	-265.49625	741.9624	714.23938	-266.31744	763.89319	840.99609	-276.77106	829.8952	690.26196	-354.13516	857.16254	835.66919	-380.88989	854.33545	782.23425	-388.05774	839.73285	758.58997	-382.64655	875.95142	749.58594	-381.35068	813.08276	463.1087	-329.70728	761.76056	456.93719	-279.87769	838.74249	194.85295	-309.48886	795.04883	207.89839	-260.47885	848.61932	94.948914	-292.83786	779.74677	390.70129	-224.63379	787.33954	363.14359	-217.78764	762.15497	359.34863	-244.60986	925.39685	61.670052	-260.50333	706.94086	68.557495	-247.71373	763.69098	114.63567	-247.58456
